<svg xmlns="http://www.w3.org/2000/svg" xmlns:xlink="http://www.w3.org/1999/xlink" width="3780" zoomAndPan="magnify" viewBox="0 0 2835 1417.499962" height="1890" preserveAspectRatio="xMidYMid meet" version="1.0"><defs><g/><clipPath id="d4a9fc6822"><path d="M 0.429688 0.144531 L 2214.609375 0.144531 L 2214.609375 277.484375 L 0.429688 277.484375 Z M 0.429688 0.144531 " clip-rule="nonzero"/></clipPath><clipPath id="b4771e1e0e"><path d="M 0.429688 17 L 187 17 L 187 200 L 0.429688 200 Z M 0.429688 17 " clip-rule="nonzero"/></clipPath><clipPath id="5199044873"><rect x="0" width="2215" y="0" height="278"/></clipPath><clipPath id="029946c3db"><rect x="0" width="2215" y="0" height="278"/></clipPath></defs><g transform="matrix(1, 0, 0, 1, 311, 502)"><g clip-path="url(#029946c3db)"><g clip-path="url(#d4a9fc6822)"><g transform="matrix(1, 0, 0, 1, -0.000000000000113687, -0.000000000000113687)"><g clip-path="url(#5199044873)"><g clip-path="url(#b4771e1e0e)"><g fill="#cd714d" fill-opacity="1"><g transform="translate(6.916435, 199.706845)"><g><path d="M 105.921875 -182.4375 L 179.5625 0 L 134.890625 0 L 121.40625 -36.484375 L 51.96875 -36.484375 L 38.484375 0 L -6.1875 0 L 67.453125 -182.4375 Z M 107.25 -72.96875 L 86.90625 -126.046875 L 86.46875 -126.046875 L 66.125 -72.96875 Z M 107.25 -72.96875 "/></g></g></g></g><g fill="#cd714d" fill-opacity="1"><g transform="translate(180.283472, 199.706845)"><g><path d="M 13.265625 -182.4375 L 69.875 -182.4375 C 86.976562 -182.4375 100.613281 -178.785156 110.78125 -171.484375 C 120.957031 -164.191406 126.046875 -152.363281 126.046875 -136 C 126.046875 -117.71875 118.453125 -104.671875 103.265625 -96.859375 C 129.210938 -92.285156 142.1875 -76.953125 142.1875 -50.859375 C 142.1875 -35.523438 136.878906 -23.210938 126.265625 -13.921875 C 115.648438 -4.640625 101.054688 0 82.484375 0 L 13.265625 0 Z M 54.84375 -111.015625 L 58.15625 -111.015625 C 67.445312 -111.015625 74.375 -112.632812 78.9375 -115.875 C 83.507812 -119.125 85.796875 -124.429688 85.796875 -131.796875 C 85.796875 -144.179688 76.582031 -150.375 58.15625 -150.375 L 54.84375 -150.375 Z M 54.84375 -32.0625 L 67.890625 -32.0625 C 88.234375 -32.0625 98.40625 -38.84375 98.40625 -52.40625 C 98.40625 -60.519531 95.863281 -66.34375 90.78125 -69.875 C 85.695312 -73.414062 78.066406 -75.1875 67.890625 -75.1875 L 54.84375 -75.1875 Z M 54.84375 -32.0625 "/></g></g></g><g fill="#cd714d" fill-opacity="1"><g transform="translate(327.557006, 199.706845)"><g><path d="M 13.265625 -182.4375 L 78.5 -182.4375 C 96.050781 -182.4375 110.351562 -177.753906 121.40625 -168.390625 C 132.457031 -159.035156 137.984375 -145.660156 137.984375 -128.265625 C 137.984375 -114.847656 134.628906 -103.601562 127.921875 -94.53125 C 121.222656 -85.46875 112.125 -79.09375 100.625 -75.40625 L 163.421875 0 L 110.5625 0 L 54.84375 -72.09375 L 54.84375 0 L 13.265625 0 Z M 54.84375 -101.5 L 59.703125 -101.5 C 63.535156 -101.5 66.78125 -101.570312 69.4375 -101.71875 C 72.09375 -101.875 75.113281 -102.390625 78.5 -103.265625 C 81.894531 -104.148438 84.625 -105.40625 86.6875 -107.03125 C 88.75 -108.65625 90.515625 -111.015625 91.984375 -114.109375 C 93.460938 -117.203125 94.203125 -120.957031 94.203125 -125.375 C 94.203125 -129.800781 93.460938 -133.5625 91.984375 -136.65625 C 90.515625 -139.757812 88.75 -142.117188 86.6875 -143.734375 C 84.625 -145.359375 81.894531 -146.613281 78.5 -147.5 C 75.113281 -148.382812 72.09375 -148.898438 69.4375 -149.046875 C 66.78125 -149.191406 63.535156 -149.265625 59.703125 -149.265625 L 54.84375 -149.265625 Z M 54.84375 -101.5 "/></g></g></g><g fill="#cd714d" fill-opacity="1"><g transform="translate(485.887094, 199.706845)"><g><path d="M 105.921875 -182.4375 L 179.5625 0 L 134.890625 0 L 121.40625 -36.484375 L 51.96875 -36.484375 L 38.484375 0 L -6.1875 0 L 67.453125 -182.4375 Z M 107.25 -72.96875 L 86.90625 -126.046875 L 86.46875 -126.046875 L 66.125 -72.96875 Z M 107.25 -72.96875 "/></g></g></g><g fill="#cd714d" fill-opacity="1"><g transform="translate(659.254114, 199.706845)"><g><path d="M 54.84375 -73.203125 L 54.84375 0 L 13.265625 0 L 13.265625 -182.4375 L 54.84375 -182.4375 L 54.84375 -109.6875 L 113.671875 -109.6875 L 113.671875 -182.4375 L 155.234375 -182.4375 L 155.234375 0 L 113.671875 0 L 113.671875 -73.203125 Z M 54.84375 -73.203125 "/></g></g></g><g fill="#cd714d" fill-opacity="1"><g transform="translate(827.756282, 199.706845)"><g><path d="M 105.921875 -182.4375 L 179.5625 0 L 134.890625 0 L 121.40625 -36.484375 L 51.96875 -36.484375 L 38.484375 0 L -6.1875 0 L 67.453125 -182.4375 Z M 107.25 -72.96875 L 86.90625 -126.046875 L 86.46875 -126.046875 L 66.125 -72.96875 Z M 107.25 -72.96875 "/></g></g></g><g fill="#cd714d" fill-opacity="1"><g transform="translate(1001.123303, 199.706845)"><g><path d="M 54.84375 -113.21875 L 54.84375 0 L 13.265625 0 L 13.265625 -182.4375 L 54.84375 -182.4375 L 127.375 -69.21875 L 127.8125 -69.21875 L 127.8125 -182.4375 L 169.390625 -182.4375 L 169.390625 0 L 127.8125 0 L 55.28125 -113.21875 Z M 54.84375 -113.21875 "/></g></g></g><g fill="#cd714d" fill-opacity="1"><g transform="translate(1183.777951, 199.706845)"><g/></g></g><g fill="#cd714d" fill-opacity="1"><g transform="translate(1244.146853, 199.706845)"><g><path d="M 13.265625 -182.4375 L 79.828125 -182.4375 C 98.410156 -182.4375 113.445312 -177.644531 124.9375 -168.0625 C 136.4375 -158.476562 142.1875 -144.546875 142.1875 -126.265625 C 142.1875 -107.984375 136.363281 -93.644531 124.71875 -83.25 C 113.070312 -72.863281 98.109375 -67.671875 79.828125 -67.671875 L 54.84375 -67.671875 L 54.84375 0 L 13.265625 0 Z M 54.84375 -100.84375 L 66.5625 -100.84375 C 75.851562 -100.84375 83.484375 -102.722656 89.453125 -106.484375 C 95.421875 -110.242188 98.40625 -116.394531 98.40625 -124.9375 C 98.40625 -133.632812 95.421875 -139.863281 89.453125 -143.625 C 83.484375 -147.382812 75.851562 -149.265625 66.5625 -149.265625 L 54.84375 -149.265625 Z M 54.84375 -100.84375 "/></g></g></g><g fill="#cd714d" fill-opacity="1"><g transform="translate(1391.420371, 199.706845)"><g><path d="M 117.640625 -182.4375 L 117.640625 -145.953125 L 54.84375 -145.953125 L 54.84375 -109.6875 L 115 -109.6875 L 115 -73.203125 L 54.84375 -73.203125 L 54.84375 -36.484375 L 117.640625 -36.484375 L 117.640625 0 L 13.265625 0 L 13.265625 -182.4375 Z M 117.640625 -182.4375 "/></g></g></g><g fill="#cd714d" fill-opacity="1"><g transform="translate(1519.676561, 199.706845)"><g><path d="M 13.265625 -182.4375 L 78.5 -182.4375 C 96.050781 -182.4375 110.351562 -177.753906 121.40625 -168.390625 C 132.457031 -159.035156 137.984375 -145.660156 137.984375 -128.265625 C 137.984375 -114.847656 134.628906 -103.601562 127.921875 -94.53125 C 121.222656 -85.46875 112.125 -79.09375 100.625 -75.40625 L 163.421875 0 L 110.5625 0 L 54.84375 -72.09375 L 54.84375 0 L 13.265625 0 Z M 54.84375 -101.5 L 59.703125 -101.5 C 63.535156 -101.5 66.78125 -101.570312 69.4375 -101.71875 C 72.09375 -101.875 75.113281 -102.390625 78.5 -103.265625 C 81.894531 -104.148438 84.625 -105.40625 86.6875 -107.03125 C 88.75 -108.65625 90.515625 -111.015625 91.984375 -114.109375 C 93.460938 -117.203125 94.203125 -120.957031 94.203125 -125.375 C 94.203125 -129.800781 93.460938 -133.5625 91.984375 -136.65625 C 90.515625 -139.757812 88.75 -142.117188 86.6875 -143.734375 C 84.625 -145.359375 81.894531 -146.613281 78.5 -147.5 C 75.113281 -148.382812 72.09375 -148.898438 69.4375 -149.046875 C 66.78125 -149.191406 63.535156 -149.265625 59.703125 -149.265625 L 54.84375 -149.265625 Z M 54.84375 -101.5 "/></g></g></g><g fill="#cd714d" fill-opacity="1"><g transform="translate(1678.006681, 199.706845)"><g><path d="M 117.640625 -182.4375 L 117.640625 -145.953125 L 54.84375 -145.953125 L 54.84375 -109.6875 L 115 -109.6875 L 115 -73.203125 L 54.84375 -73.203125 L 54.84375 -36.484375 L 117.640625 -36.484375 L 117.640625 0 L 13.265625 0 L 13.265625 -182.4375 Z M 117.640625 -182.4375 "/></g></g></g><g fill="#cd714d" fill-opacity="1"><g transform="translate(1806.262871, 199.706845)"><g><path d="M 54.84375 -182.4375 L 54.84375 0 L 13.265625 0 L 13.265625 -182.4375 Z M 54.84375 -182.4375 "/></g></g></g><g fill="#cd714d" fill-opacity="1"><g transform="translate(1874.37133, 199.706845)"><g><path d="M 13.265625 -182.4375 L 78.5 -182.4375 C 96.050781 -182.4375 110.351562 -177.753906 121.40625 -168.390625 C 132.457031 -159.035156 137.984375 -145.660156 137.984375 -128.265625 C 137.984375 -114.847656 134.628906 -103.601562 127.921875 -94.53125 C 121.222656 -85.46875 112.125 -79.09375 100.625 -75.40625 L 163.421875 0 L 110.5625 0 L 54.84375 -72.09375 L 54.84375 0 L 13.265625 0 Z M 54.84375 -101.5 L 59.703125 -101.5 C 63.535156 -101.5 66.78125 -101.570312 69.4375 -101.71875 C 72.09375 -101.875 75.113281 -102.390625 78.5 -103.265625 C 81.894531 -104.148438 84.625 -105.40625 86.6875 -107.03125 C 88.75 -108.65625 90.515625 -111.015625 91.984375 -114.109375 C 93.460938 -117.203125 94.203125 -120.957031 94.203125 -125.375 C 94.203125 -129.800781 93.460938 -133.5625 91.984375 -136.65625 C 90.515625 -139.757812 88.75 -142.117188 86.6875 -143.734375 C 84.625 -145.359375 81.894531 -146.613281 78.5 -147.5 C 75.113281 -148.382812 72.09375 -148.898438 69.4375 -149.046875 C 66.78125 -149.191406 63.535156 -149.265625 59.703125 -149.265625 L 54.84375 -149.265625 Z M 54.84375 -101.5 "/></g></g></g><g fill="#cd714d" fill-opacity="1"><g transform="translate(2032.70145, 199.706845)"><g><path d="M 105.921875 -182.4375 L 179.5625 0 L 134.890625 0 L 121.40625 -36.484375 L 51.96875 -36.484375 L 38.484375 0 L -6.1875 0 L 67.453125 -182.4375 Z M 107.25 -72.96875 L 86.90625 -126.046875 L 86.46875 -126.046875 L 66.125 -72.96875 Z M 107.25 -72.96875 "/></g></g></g></g></g></g></g></g></svg>